<svg xmlns="http://www.w3.org/2000/svg" xmlns:xlink="http://www.w3.org/1999/xlink" width="177.086" height="56.505" viewBox="0 0 177.086 56.505">
  <defs>
    <clipPath id="clip-path">
      <rect id="Rechteck_9" data-name="Rechteck 9" width="177.086" height="56.505" fill="none"/>
    </clipPath>
  </defs>
  <g id="Gruppe_2" data-name="Gruppe 2" transform="translate(0 0)">
    <g id="Gruppe_1" data-name="Gruppe 1" transform="translate(0 0)" clip-path="url(#clip-path)">
      <path id="Pfad_1" data-name="Pfad 1" d="M93.022,44.3H85.5c-.464,0-.7-.417-.649-.881l.371-2.6a.986.986,0,0,1,.881-.881h18.977c.464,0,.7.417.649.881l-.371,2.6a.947.947,0,0,1-.881.881H97.845l-3.8,27.219a1.032,1.032,0,0,1-.928.881H89.869a.766.766,0,0,1-.7-.881Z" transform="translate(-33.766 -15.896)" fill="#5d5c5c"/>
      <path id="Pfad_2" data-name="Pfad 2" d="M124.183,40.821a1.077,1.077,0,0,1,.928-.881h3.245a.739.739,0,0,1,.7.881L127.2,53.758h14.055l1.808-12.937a1.032,1.032,0,0,1,.927-.881h3.246a.71.71,0,0,1,.649.881l-4.312,30.7a.986.986,0,0,1-.881.881h-3.245a.739.739,0,0,1-.7-.881l1.9-13.4H126.594l-1.9,13.4a.947.947,0,0,1-.881.881h-3.246a.766.766,0,0,1-.7-.881Z" transform="translate(-47.704 -15.895)" fill="#5d5c5c"/>
      <path id="Pfad_3" data-name="Pfad 3" d="M175.326,40.821a.986.986,0,0,1,.881-.881h16.832c.464,0,.7.417.65.881l-.371,2.6a.948.948,0,0,1-.881.881H179.591l-1.344,9.459h10.8a.736.736,0,0,1,.65.881l-.371,2.6a.982.982,0,0,1-.881.881h-10.8l-1.391,9.97H189.1a.735.735,0,0,1,.65.881l-.371,2.55a.991.991,0,0,1-.927.881H171.662a.688.688,0,0,1-.649-.881Z" transform="translate(-68.052 -15.895)" fill="#5d5c5c"/>
      <path id="Pfad_4" data-name="Pfad 4" d="M224.514,55.66c2.736,0,5.564-2.875,5.564-6.446,0-2.6-1.716-4.776-3.988-4.776H219L217.42,55.66Zm-9.83-14.839a.986.986,0,0,1,.881-.881h11.593c4.544,0,7.837,4.081,7.837,8.625a10.985,10.985,0,0,1-7.7,10.711L231.423,71.1a.882.882,0,0,1-.742,1.3H227.2a.854.854,0,0,1-.881-.649l-3.431-12.01H216.77L215.1,71.518a.986.986,0,0,1-.881.881h-3.2a.688.688,0,0,1-.649-.881Z" transform="translate(-83.716 -15.895)" fill="#5d5c5c"/>
      <path id="Pfad_5" data-name="Pfad 5" d="M268.46,61.058l-3.014-12.752h-.185l-6.539,12.752Zm-20.124,9.83,17.25-31.207a.833.833,0,0,1,.788-.51h.418a.7.7,0,0,1,.649.51l8.393,31.207a.957.957,0,0,1-.881,1.206H272.17a.893.893,0,0,1-.973-.7l-1.669-6.446H256.775L253.2,71.4a1.317,1.317,0,0,1-1.159.7h-3.153c-.649,0-.881-.6-.556-1.206" transform="translate(-98.774 -15.589)" fill="#5d5c5c"/>
      <path id="Pfad_6" data-name="Pfad 6" d="M7.053,46.418A108.037,108.037,0,0,1,19.4,33.762L31.185,11.446h.477l2.766,11.122q2.485-1.565,5.041-3L34.524.874A1.193,1.193,0,0,0,33.411,0H32.7a1.516,1.516,0,0,0-1.352.874L4.787,49.31c.694-.929,1.451-1.9,2.266-2.892" transform="translate(-1.905 0)" fill="#5d5c5c"/>
      <path id="Pfad_7" data-name="Pfad 7" d="M63.145,47.716q-2.533,1.876-4.952,3.94l5.693,22.9a1.16,1.16,0,0,0,1.192.874h3.339a1.641,1.641,0,0,0,1.51-2.067Z" transform="translate(-23.16 -18.99)" fill="#5d5c5c"/>
      <path id="Pfad_8" data-name="Pfad 8" d="M13.328,60.08H0c.141-4,54.224-83.51,163.593-35.794a.607.607,0,0,1-.561,1.075c-11.24-4.169-102.81-41.2-149.7,34.719" transform="translate(0 -3.616)" fill="#0075b4"/>
    </g>
  </g>
</svg>
